<svg width="279" height="48" viewBox="0 0 279 48" fill="none" xmlns="http://www.w3.org/2000/svg">
<path d="M12.544 46.848C9.68533 46.848 7.31733 46.3573 5.44 45.376C3.60533 44.3947 2.24 43.136 1.344 41.6C0.448 40.064 0 38.4853 0 36.864C0 35.2853 0.384 33.792 1.152 32.384C1.92 30.9333 3.008 29.7387 4.416 28.8C5.86667 27.8613 7.57333 27.392 9.536 27.392C9.49333 27.776 9.472 28.1387 9.472 28.48C9.472 28.7787 9.472 28.928 9.472 28.928C9.472 31.7867 9.74933 34.048 10.304 35.712C10.8587 37.3333 11.5627 38.5067 12.416 39.232C13.2693 39.9147 14.144 40.256 15.04 40.256C16.4053 40.256 17.6213 39.7227 18.688 38.656C19.7547 37.5467 20.288 36.2667 20.288 34.816C20.288 33.1947 19.584 31.7653 18.176 30.528C16.8107 29.2907 15.0613 27.9253 12.928 26.432C11.7333 25.536 10.4533 24.5333 9.088 23.424C7.76533 22.272 6.63467 20.928 5.696 19.392C4.75733 17.8133 4.288 15.9573 4.288 13.824C4.288 11.6053 4.8 9.64266 5.824 7.936C6.89067 6.22933 8.27733 4.8 9.984 3.648C11.7333 2.45333 13.632 1.55733 15.68 0.959999C17.7707 0.32 19.84 0 21.888 0C24.4053 0 26.4747 0.405333 28.096 1.216C29.7173 2.02667 30.9333 3.072 31.744 4.352C32.5547 5.632 32.96 6.95467 32.96 8.32C32.96 9.6 32.5973 10.8373 31.872 12.032C31.1893 13.184 30.1653 14.1227 28.8 14.848C27.4347 15.5733 25.7493 15.936 23.744 15.936C23.872 15.3387 23.9573 14.8053 24 14.336C24.0427 13.824 24.064 13.376 24.064 12.992C24.064 10.8587 23.5947 9.344 22.656 8.448C21.76 7.50933 20.7573 7.04 19.648 7.04C18.5813 7.04 17.5573 7.44533 16.576 8.256C15.5947 9.024 15.104 10.2827 15.104 12.032C15.104 13.5253 15.488 14.8053 16.256 15.872C17.0667 16.9387 18.0907 17.8773 19.328 18.688C20.608 19.4987 21.952 20.288 23.36 21.056C24.8107 21.824 26.1973 22.6773 27.52 23.616C28.8853 24.512 30.016 25.5787 30.912 26.816C31.808 28.0533 32.256 29.6107 32.256 31.488C32.256 33.4507 31.7227 35.3707 30.656 37.248C29.5893 39.0827 28.1387 40.7253 26.304 42.176C24.4693 43.584 22.3573 44.7147 19.968 45.568C17.6213 46.4213 15.1467 46.848 12.544 46.848Z" fill="#0F25B7"/>
<path d="M44.734 46.912C41.918 46.912 39.5287 46.272 37.566 44.992C35.646 43.712 34.1953 42.048 33.214 40C32.2327 37.9093 31.742 35.6693 31.742 33.28C31.742 31.0187 32.1687 28.7573 33.022 26.496C33.918 24.2347 35.2193 22.1653 36.926 20.288C38.6327 18.368 40.702 16.8533 43.134 15.744C45.6087 14.592 48.446 14.016 51.646 14.016C54.8033 14.016 57.15 14.656 58.686 15.936C60.222 17.1733 60.99 18.5387 60.99 20.032C60.99 21.6107 60.2007 23.0613 58.622 24.384C57.0433 25.7067 54.7393 26.368 51.71 26.368C51.8807 25.728 52.0087 25.088 52.094 24.448C52.222 23.7653 52.286 23.1253 52.286 22.528C52.286 21.632 52.094 20.8853 51.71 20.288C51.326 19.648 50.6433 19.328 49.662 19.328C48.766 19.328 47.806 19.7333 46.782 20.544C45.8007 21.3547 44.9473 22.5493 44.222 24.128C43.5393 25.7067 43.198 27.648 43.198 29.952C43.198 32.2133 43.5607 34.048 44.286 35.456C45.054 36.864 46.0353 37.888 47.23 38.528C48.4247 39.1253 49.6833 39.424 51.006 39.424C52.7553 39.424 54.4407 38.976 56.062 38.08C57.6833 37.1413 58.8567 35.8613 59.582 34.24L60.222 34.496C60.222 36.7147 59.71 38.6133 58.686 40.192C57.7047 41.728 56.4247 43.008 54.846 44.032C53.2673 45.0133 51.582 45.7387 49.79 46.208C47.998 46.6773 46.3127 46.912 44.734 46.912Z" fill="#0F25B7"/>
<path d="M73.6145 46.912C70.4998 46.912 67.9185 46.2933 65.8705 45.056C63.8225 43.776 62.2865 42.112 61.2625 40.064C60.2385 37.9733 59.7265 35.7333 59.7265 33.344C59.7265 31.0827 60.1532 28.8213 61.0065 26.56C61.9025 24.256 63.1825 22.1653 64.8465 20.288C66.5532 18.4107 68.6012 16.896 70.9905 15.744C73.4225 14.592 76.1532 14.016 79.1825 14.016C82.9372 14.016 85.6678 14.8693 87.3745 16.576C89.1238 18.24 89.9985 20.2667 89.9985 22.656C89.9985 24.704 89.4438 26.6027 88.3345 28.352C87.2678 30.0587 85.8385 31.4453 84.0465 32.512C82.2545 33.536 80.2918 34.048 78.1585 34.048C77.0492 34.048 75.9185 33.8773 74.7665 33.536C73.6145 33.1947 72.4838 32.6613 71.3745 31.936C71.5878 34.5813 72.3558 36.5013 73.6785 37.696C75.0012 38.8907 76.5798 39.488 78.4145 39.488C79.6945 39.488 80.9745 39.2533 82.2545 38.784C83.5345 38.272 84.7078 37.632 85.7745 36.864C86.8838 36.0533 87.7372 35.2 88.3345 34.304L88.7825 34.624C88.7825 36.8427 88.3132 38.7413 87.3745 40.32C86.4785 41.856 85.2838 43.1147 83.7905 44.096C82.2972 45.0773 80.6545 45.8027 78.8625 46.272C77.1132 46.6987 75.3638 46.912 73.6145 46.912ZM75.0865 29.632C76.4518 29.632 77.5612 29.248 78.4145 28.48C79.2678 27.6693 79.9078 26.7307 80.3345 25.664C80.7612 24.5973 80.9745 23.6587 80.9745 22.848C80.9745 21.8667 80.6972 21.056 80.1425 20.416C79.5878 19.7333 78.8198 19.392 77.8385 19.392C77.0705 19.392 76.2172 19.6693 75.2785 20.224C74.3825 20.7787 73.5718 21.7387 72.8465 23.104C72.1212 24.4267 71.6518 26.2827 71.4385 28.672C72.8038 29.312 74.0198 29.632 75.0865 29.632Z" fill="#0F25B7"/>
<path d="M97.0025 46.656C95.4238 46.656 93.9945 46.0373 92.7145 44.8C91.4345 43.52 90.7945 41.7493 90.7945 39.488C90.7945 38.3787 90.9438 37.12 91.2425 35.712C91.5412 34.304 91.8612 32.8747 92.2025 31.424C92.5865 29.9733 92.9278 28.608 93.2265 27.328C93.5252 26.048 93.6745 25.0027 93.6745 24.192C93.6745 23.3387 93.5038 22.6773 93.1625 22.208C92.8212 21.696 92.3732 21.44 91.8185 21.44C91.0932 21.44 90.3038 21.8667 89.4505 22.72L89.0665 22.464C89.0238 21.7813 89.1732 20.9707 89.5145 20.032C89.8558 19.0933 90.3678 18.1973 91.0505 17.344C91.7758 16.448 92.6932 15.7013 93.8025 15.104C94.9118 14.5067 96.2345 14.208 97.7705 14.208C100.032 14.208 101.696 14.8693 102.763 16.192C103.872 17.472 104.427 19.0507 104.427 20.928C104.427 21.6107 104.363 22.272 104.235 22.912C105.131 21.5893 106.24 20.2667 107.562 18.944C108.885 17.5787 110.336 16.448 111.915 15.552C113.536 14.656 115.2 14.208 116.907 14.208C118.912 14.208 120.277 14.848 121.003 16.128C121.728 17.408 122.091 19.008 122.091 20.928C122.091 22.72 121.899 24.64 121.515 26.688C121.131 28.736 120.747 30.72 120.363 32.64C119.979 34.5173 119.787 36.096 119.787 37.376C119.787 39.0827 120.277 39.936 121.259 39.936C121.771 39.936 122.219 39.7867 122.603 39.488C122.987 39.1467 123.243 38.8267 123.371 38.528L123.819 38.72C123.819 40.2987 123.371 41.6853 122.475 42.88C121.621 44.0747 120.533 45.0133 119.211 45.696C117.888 46.336 116.544 46.656 115.179 46.656C113.515 46.656 112.043 46.08 110.763 44.928C109.483 43.776 108.843 41.8987 108.843 39.296C108.843 37.76 109.035 36.096 109.419 34.304C109.845 32.512 110.251 30.784 110.635 29.12C111.019 27.456 111.211 26.0907 111.211 25.024C111.211 24.384 111.083 23.8933 110.826 23.552C110.613 23.168 110.208 22.976 109.611 22.976C108.629 22.976 107.541 23.424 106.347 24.32C105.195 25.216 104.192 26.4107 103.339 27.904C102.528 29.3973 102.123 31.04 102.123 32.832C102.123 33.984 102.251 35.0933 102.507 36.16C102.805 37.2267 102.955 38.3787 102.955 39.616C102.955 41.92 102.357 43.6693 101.163 44.864C99.9678 46.0587 98.5812 46.656 97.0025 46.656Z" fill="#0F25B7"/>
<path d="M136.934 46.912C133.82 46.912 131.239 46.2933 129.191 45.056C127.143 43.776 125.606 42.112 124.582 40.064C123.558 37.9733 123.047 35.7333 123.047 33.344C123.047 31.0827 123.473 28.8213 124.326 26.56C125.223 24.256 126.503 22.1653 128.167 20.288C129.873 18.4107 131.921 16.896 134.311 15.744C136.743 14.592 139.473 14.016 142.503 14.016C146.257 14.016 148.988 14.8693 150.695 16.576C152.444 18.24 153.318 20.2667 153.318 22.656C153.318 24.704 152.764 26.6027 151.654 28.352C150.588 30.0587 149.159 31.4453 147.367 32.512C145.575 33.536 143.612 34.048 141.479 34.048C140.369 34.048 139.239 33.8773 138.087 33.536C136.935 33.1947 135.804 32.6613 134.695 31.936C134.908 34.5813 135.676 36.5013 136.999 37.696C138.321 38.8907 139.9 39.488 141.734 39.488C143.014 39.488 144.294 39.2533 145.574 38.784C146.854 38.272 148.028 37.632 149.094 36.864C150.204 36.0533 151.057 35.2 151.654 34.304L152.102 34.624C152.102 36.8427 151.633 38.7413 150.695 40.32C149.799 41.856 148.604 43.1147 147.111 44.096C145.617 45.0773 143.974 45.8027 142.182 46.272C140.433 46.6987 138.684 46.912 136.934 46.912ZM138.406 29.632C139.772 29.632 140.881 29.248 141.734 28.48C142.588 27.6693 143.228 26.7307 143.654 25.664C144.081 24.5973 144.294 23.6587 144.294 22.848C144.294 21.8667 144.017 21.056 143.462 20.416C142.908 19.7333 142.14 19.392 141.158 19.392C140.39 19.392 139.537 19.6693 138.598 20.224C137.702 20.7787 136.892 21.7387 136.167 23.104C135.441 24.4267 134.972 26.2827 134.758 28.672C136.124 29.312 137.34 29.632 138.406 29.632Z" fill="#0F25B7"/>
<path d="M163.59 47.04C160.944 47.04 158.747 46.6773 156.997 45.952C155.248 45.2267 153.947 44.3093 153.094 43.2C152.24 42.048 151.814 40.896 151.814 39.744C151.814 38.1227 152.539 36.6933 153.99 35.456C155.44 34.176 157.403 33.536 159.878 33.536C159.878 35.712 160.155 37.4613 160.71 38.784C161.264 40.064 161.968 40.9813 162.822 41.536C163.718 42.0907 164.571 42.368 165.382 42.368C166.363 42.368 167.174 42.0907 167.814 41.536C168.496 40.9387 168.838 40.2133 168.838 39.36C168.838 38.1653 168.219 37.12 166.982 36.224C165.744 35.328 164.144 34.3253 162.182 33.216C161.2 32.6187 160.134 31.936 158.982 31.168C157.83 30.3573 156.848 29.3973 156.038 28.288C155.227 27.136 154.822 25.7707 154.822 24.192C154.822 22.528 155.291 21.056 156.23 19.776C157.211 18.496 158.491 17.4293 160.07 16.576C161.648 15.68 163.355 15.0187 165.189 14.592C167.024 14.1227 168.816 13.888 170.566 13.888C173.851 13.888 176.326 14.5493 177.99 15.872C179.654 17.1947 180.486 18.6027 180.486 20.096C180.486 21.376 179.846 22.528 178.566 23.552C177.286 24.576 175.323 25.088 172.678 25.088C172.72 22.912 172.272 21.3333 171.333 20.352C170.395 19.328 169.392 18.816 168.326 18.816C167.558 18.816 166.918 19.0507 166.406 19.52C165.894 19.9893 165.637 20.672 165.637 21.568C165.637 22.592 165.958 23.488 166.598 24.256C167.28 24.9813 168.112 25.6427 169.094 26.24C170.118 26.7947 171.163 27.328 172.23 27.84C173.68 28.5227 175.046 29.248 176.326 30.016C177.606 30.784 178.651 31.6587 179.462 32.64C180.272 33.6213 180.678 34.816 180.678 36.224C180.678 38.144 179.888 39.936 178.31 41.6C176.774 43.2213 174.704 44.544 172.102 45.568C169.499 46.5493 166.662 47.04 163.59 47.04Z" fill="#0F25B7"/>
<path d="M216.889 46.912C215.353 46.912 213.604 46.6347 211.641 46.08C209.721 45.5253 207.694 44.928 205.561 44.288C203.47 43.6053 201.38 43.1147 199.289 42.816C197.838 44.1813 196.473 45.1627 195.193 45.76C193.956 46.3147 192.846 46.592 191.865 46.592C190.628 46.592 189.582 46.2293 188.729 45.504C187.876 44.7787 187.236 43.8613 186.809 42.752C186.382 41.6 186.169 40.4267 186.169 39.232C186.169 37.9947 186.382 36.8213 186.809 35.712C187.278 34.6027 187.982 33.7067 188.921 33.024C189.86 32.2987 191.054 31.936 192.505 31.936C192.804 31.936 193.124 31.9573 193.465 32C193.806 32.0427 194.169 32.1067 194.553 32.192C195.364 29.7173 196.068 26.9867 196.665 24C197.305 20.9707 197.796 18.0053 198.137 15.104C198.521 12.2027 198.713 9.68533 198.713 7.552C198.713 6.69867 198.67 6.10133 198.585 5.76C198.5 5.376 198.35 4.992 198.137 4.608L198.073 4.416C198.585 3.05067 199.438 1.984 200.633 1.216C201.828 0.447999 203.086 0.0639992 204.409 0.0639992C205.86 0.0639992 207.054 0.597332 207.993 1.664C208.932 2.688 209.401 4.416 209.401 6.848C209.401 8.384 209.209 10.304 208.825 12.608C208.484 14.8693 207.993 17.3227 207.353 19.968C206.713 22.5707 206.009 25.152 205.241 27.712C204.473 30.272 203.705 32.5547 202.937 34.56C204.814 34.9867 206.692 35.4773 208.569 36.032C210.489 36.5867 212.366 36.864 214.201 36.864C215.609 36.864 216.953 36.608 218.233 36.096C219.556 35.584 220.793 34.6453 221.945 33.28C222.798 33.8347 223.417 34.624 223.801 35.648C224.228 36.672 224.441 37.76 224.441 38.912C224.441 40.192 224.164 41.4507 223.609 42.688C223.097 43.8827 222.286 44.8853 221.177 45.696C220.068 46.5067 218.638 46.912 216.889 46.912Z" fill="#0F25B7"/>
<path d="M228.859 46.784C227.664 46.784 226.597 46.2933 225.658 45.312C224.762 44.288 224.314 42.4107 224.314 39.68C224.314 39.2107 224.314 38.8053 224.314 38.464C224.357 38.08 224.378 37.8027 224.378 37.632C224.549 35.9253 224.784 33.8133 225.083 31.296C225.424 28.736 225.808 26.0693 226.234 23.296C226.661 20.48 227.088 17.7707 227.514 15.168C227.984 12.5653 228.41 10.304 228.794 8.384C229.178 6.42133 229.499 5.07733 229.755 4.352C230.224 3.072 231.056 2.06933 232.251 1.344C233.488 0.575998 234.747 0.191998 236.027 0.191998C237.136 0.191998 238.138 0.511998 239.035 1.152C239.973 1.792 240.613 2.88 240.954 4.416C240.698 5.26933 240.293 6.784 239.738 8.96C239.184 11.0933 238.587 13.7173 237.947 16.832C237.307 19.9467 236.688 23.3813 236.09 27.136C235.536 30.8907 235.088 34.816 234.747 38.912C234.704 39.6373 234.64 40.4907 234.555 41.472C234.469 42.4107 234.405 43.3707 234.363 44.352C233.851 44.9067 233.083 45.4613 232.059 46.016C231.035 46.528 229.968 46.784 228.859 46.784Z" fill="#0F25B7"/>
<path d="M255.434 46.72C254.111 46.72 252.938 46.3787 251.914 45.696C250.933 45.0133 250.463 43.9893 250.506 42.624C250.591 40.2347 250.762 37.5893 251.018 34.688C251.317 31.7867 251.658 28.8427 252.042 25.856C252.426 22.8267 252.81 19.9253 253.194 17.152C253.621 14.3787 254.005 11.904 254.346 9.728C253.578 9.64267 252.831 9.57867 252.106 9.536C251.381 9.49333 250.719 9.472 250.122 9.472C248.33 9.472 246.709 9.64267 245.258 9.984C243.85 10.3253 242.655 10.9227 241.674 11.776C241.674 9.088 241.887 6.912 242.314 5.248C242.783 3.54133 243.615 2.304 244.81 1.536C246.047 0.767999 247.839 0.383999 250.186 0.383999C251.893 0.383999 253.791 0.533332 255.882 0.831997C258.015 1.088 260.17 1.36533 262.346 1.664C264.522 1.96267 266.549 2.112 268.426 2.112C269.962 2.112 271.327 1.96267 272.522 1.664C273.759 1.36533 274.698 0.831999 275.338 0.0639992C276.277 0.362665 277.002 1.024 277.514 2.048C278.026 3.02933 278.282 4.11733 278.282 5.312C278.282 6.37867 278.047 7.424 277.578 8.448C277.109 9.42933 276.362 10.2613 275.338 10.944C274.314 11.584 272.927 11.904 271.178 11.904C270.367 11.904 269.365 11.84 268.17 11.712C267.018 11.5413 265.781 11.3707 264.458 11.2C263.989 13.76 263.498 16.832 262.986 20.416C262.517 23.9573 262.111 27.776 261.77 31.872C261.471 35.968 261.279 40.128 261.194 44.352C260.426 45.1627 259.509 45.76 258.442 46.144C257.418 46.528 256.415 46.72 255.434 46.72Z" fill="#0F25B7"/>
</svg>
