<svg width="697" height="120" viewBox="0 0 697 120" fill="none" xmlns="http://www.w3.org/2000/svg">
<path d="M31.3375 117.12C24.196 117.12 18.2802 115.893 13.5903 113.44C9.00686 110.987 5.59599 107.84 3.35759 104C1.1192 100.16 0 96.2132 0 92.16C0 88.2132 0.959312 84.48 2.87794 80.96C4.79656 77.3332 7.51461 74.3467 11.0321 72C14.6562 69.6532 18.9198 68.48 23.8229 68.48C23.7163 69.44 23.663 70.3467 23.663 71.2C23.663 71.9467 23.663 72.32 23.663 72.32C23.663 79.4667 24.3559 85.12 25.7415 89.28C27.1273 93.3333 28.886 96.2667 31.0177 98.08C33.1495 99.7867 35.3347 100.64 37.573 100.64C40.9838 100.64 44.0217 99.3067 46.6865 96.64C49.3513 93.8667 50.6836 90.6668 50.6836 87.04C50.6836 82.9868 48.9249 79.4132 45.4074 76.32C41.9966 73.2267 37.6263 69.8132 32.2968 66.08C29.3122 63.84 26.1145 61.3332 22.7037 58.56C19.3994 55.68 16.5748 52.32 14.2298 48.48C11.8848 44.5333 10.7123 39.8933 10.7123 34.56C10.7123 29.0133 11.9914 24.1066 14.5496 19.84C17.2143 15.5733 20.6785 12 24.9421 9.12C29.3122 6.13333 34.0556 3.89333 39.1719 2.4C44.3949 0.8 49.5644 0 54.6808 0C60.9695 0 66.1393 1.01333 70.1896 3.04C74.24 5.06667 77.2778 7.68 79.3031 10.88C81.3284 14.08 82.3409 17.3867 82.3409 20.8C82.3409 24 81.4348 27.0932 79.6229 30.08C77.9174 32.96 75.3592 35.3067 71.9484 37.12C68.5376 38.9332 64.3271 39.84 59.3174 39.84C59.6372 38.3467 59.8503 37.0133 59.957 35.84C60.0637 34.56 60.1169 33.44 60.1169 32.48C60.1169 27.1467 58.9445 23.36 56.5994 21.12C54.361 18.7733 51.8561 17.6 49.0848 17.6C46.42 17.6 43.8618 18.6133 41.4103 20.64C38.9588 22.56 37.7329 25.7067 37.7329 30.08C37.7329 33.8132 38.6922 37.0132 40.6109 39.68C42.6362 42.3467 45.1943 44.6932 48.2854 46.72C51.4831 48.7467 54.8407 50.72 58.3581 52.64C61.9823 54.56 65.4463 56.6932 68.7507 59.04C72.1615 61.28 74.9862 63.9467 77.2246 67.04C79.463 70.1333 80.5822 74.0268 80.5822 78.72C80.5822 83.6268 79.2499 88.4268 76.5851 93.12C73.9202 97.7068 70.2963 101.813 65.7129 105.44C61.1294 108.96 55.8532 111.787 49.8842 113.92C44.0217 116.053 37.8396 117.12 31.3375 117.12Z" fill="#D44D5C"/>
<path d="M111.755 117.28C104.72 117.28 98.7509 115.68 93.8477 112.48C89.0511 109.28 85.4269 105.12 82.9755 100C80.524 94.7732 79.2981 89.1732 79.2981 83.2C79.2981 77.5467 80.3641 71.8932 82.4958 66.24C84.7342 60.5867 87.9851 55.4132 92.2488 50.72C96.5125 45.92 101.682 42.1332 107.758 39.36C113.94 36.48 121.028 35.04 129.022 35.04C136.91 35.04 142.773 36.64 146.61 39.84C150.447 42.9332 152.366 46.3467 152.366 50.08C152.366 54.0267 150.394 57.6532 146.45 60.96C142.506 64.2667 136.75 65.92 129.182 65.92C129.609 64.32 129.929 62.72 130.142 61.12C130.461 59.4132 130.621 57.8132 130.621 56.32C130.621 54.08 130.142 52.2132 129.182 50.72C128.223 49.12 126.517 48.32 124.066 48.32C121.828 48.32 119.429 49.3332 116.871 51.36C114.42 53.3867 112.288 56.3732 110.476 60.32C108.77 64.2667 107.918 69.12 107.918 74.88C107.918 80.5332 108.824 85.12 110.636 88.64C112.554 92.16 115.006 94.72 117.99 96.32C120.975 97.8132 124.119 98.56 127.424 98.56C131.794 98.56 136.004 97.44 140.055 95.2C144.105 92.8532 147.036 89.6532 148.848 85.6L150.447 86.24C150.447 91.7867 149.168 96.5332 146.61 100.48C144.158 104.32 140.961 107.52 137.017 110.08C133.073 112.533 128.863 114.347 124.386 115.52C119.909 116.693 115.699 117.28 111.755 117.28Z" fill="#D44D5C"/>
<path d="M183.904 117.28C176.123 117.28 169.675 115.733 164.558 112.64C159.442 109.44 155.605 105.28 153.046 100.16C150.488 94.9332 149.209 89.3332 149.209 83.36C149.209 77.7067 150.275 72.0532 152.407 66.4C154.645 60.64 157.843 55.4132 162 50.72C166.264 46.0267 171.38 42.24 177.349 39.36C183.425 36.48 190.247 35.04 197.814 35.04C207.194 35.04 214.016 37.1732 218.28 41.44C222.65 45.6 224.835 50.6667 224.835 56.64C224.835 61.76 223.449 66.5067 220.678 70.88C218.013 75.1467 214.442 78.6132 209.966 81.28C205.489 83.84 200.586 85.12 195.256 85.12C192.485 85.12 189.66 84.6932 186.782 83.84C183.904 82.9867 181.08 81.6532 178.308 79.84C178.841 86.4532 180.76 91.2532 184.064 94.24C187.369 97.2267 191.312 98.72 195.896 98.72C199.093 98.72 202.291 98.1332 205.489 96.96C208.687 95.68 211.618 94.08 214.283 92.16C217.054 90.1332 219.186 88 220.678 85.76L221.797 86.56C221.797 92.1067 220.625 96.8532 218.28 100.8C216.041 104.64 213.057 107.787 209.326 110.24C205.596 112.693 201.492 114.507 197.015 115.68C192.645 116.747 188.274 117.28 183.904 117.28ZM187.582 74.08C190.993 74.08 193.764 73.12 195.896 71.2C198.027 69.1732 199.626 66.8267 200.692 64.16C201.758 61.4932 202.291 59.1467 202.291 57.12C202.291 54.6667 201.598 52.64 200.213 51.04C198.827 49.3332 196.908 48.48 194.457 48.48C192.538 48.48 190.406 49.1732 188.061 50.56C185.823 51.9467 183.798 54.3467 181.986 57.76C180.174 61.0667 179.001 65.7067 178.468 71.68C181.879 73.28 184.917 74.08 187.582 74.08Z" fill="#D44D5C"/>
<path d="M242.332 116.64C238.389 116.64 234.818 115.093 231.62 112C228.422 108.8 226.824 104.373 226.824 98.72C226.824 95.9468 227.197 92.8 227.943 89.28C228.689 85.76 229.488 82.1868 230.341 78.56C231.3 74.9333 232.153 71.52 232.899 68.32C233.645 65.12 234.018 62.5068 234.018 60.48C234.018 58.3468 233.592 56.6933 232.739 55.52C231.887 54.24 230.767 53.6 229.382 53.6C227.57 53.6 225.598 54.6668 223.466 56.8L222.507 56.16C222.4 54.4533 222.773 52.4268 223.626 50.08C224.479 47.7333 225.758 45.4933 227.463 43.36C229.275 41.12 231.567 39.2533 234.338 37.76C237.109 36.2668 240.414 35.52 244.251 35.52C249.901 35.52 254.058 37.1733 256.723 40.48C259.494 43.68 260.88 47.6268 260.88 52.32C260.88 54.0268 260.721 55.68 260.401 57.28C262.639 53.9733 265.41 50.6668 268.712 47.36C272.017 43.9468 275.642 41.12 279.587 38.88C283.637 36.64 287.794 35.52 292.058 35.52C297.067 35.52 300.477 37.12 302.291 40.32C304.102 43.52 305.009 47.52 305.009 52.32C305.009 56.8 304.529 61.6 303.57 66.72C302.61 71.84 301.651 76.8 300.692 81.6C299.733 86.2933 299.253 90.24 299.253 93.44C299.253 97.7068 300.477 99.84 302.93 99.84C304.209 99.84 305.329 99.4668 306.288 98.72C307.247 97.8668 307.887 97.0668 308.206 96.32L309.326 96.8C309.326 100.747 308.206 104.213 305.968 107.2C303.835 110.187 301.117 112.533 297.814 114.24C294.509 115.84 291.151 116.64 287.741 116.64C283.584 116.64 279.907 115.2 276.709 112.32C273.511 109.44 271.912 104.747 271.912 98.24C271.912 94.4 272.392 90.24 273.351 85.76C274.416 81.28 275.43 76.96 276.389 72.8C277.349 68.64 277.828 65.2268 277.828 62.56C277.828 60.96 277.508 59.7333 276.866 58.88C276.334 57.92 275.323 57.44 273.831 57.44C271.378 57.44 268.66 58.56 265.677 60.8C262.799 63.04 260.293 66.0268 258.162 69.76C256.136 73.4933 255.125 77.6 255.125 82.08C255.125 84.96 255.444 87.7333 256.084 90.4C256.828 93.0668 257.203 95.9468 257.203 99.04C257.203 104.8 255.709 109.173 252.726 112.16C249.74 115.147 246.276 116.64 242.332 116.64Z" fill="#D44D5C"/>
<path d="M342.09 117.28C334.31 117.28 327.862 115.733 322.746 112.64C317.63 109.44 313.79 105.28 311.232 100.16C308.674 94.9332 307.397 89.3332 307.397 83.36C307.397 77.7067 308.461 72.0532 310.592 66.4C312.833 60.64 316.031 55.4132 320.188 50.72C324.45 46.0267 329.566 42.24 335.537 39.36C341.612 36.48 348.433 35.04 356.002 35.04C365.38 35.04 372.203 37.1732 376.467 41.44C380.837 45.6 383.02 50.6667 383.02 56.64C383.02 61.76 381.636 66.5067 378.863 70.88C376.2 75.1467 372.63 78.6132 368.153 81.28C363.677 83.84 358.773 85.12 353.444 85.12C350.671 85.12 347.848 84.6932 344.97 83.84C342.092 82.9867 339.267 81.6532 336.496 79.84C337.028 86.4532 338.947 91.2532 342.252 94.24C345.555 97.2267 349.499 98.72 354.081 98.72C357.279 98.72 360.476 98.1332 363.674 96.96C366.872 95.68 369.805 94.08 372.468 92.16C375.241 90.1332 377.372 88 378.863 85.76L379.982 86.56C379.982 92.1067 378.811 96.8532 376.467 100.8C374.229 104.64 371.244 107.787 367.514 110.24C363.782 112.693 359.677 114.507 355.2 115.68C350.831 116.747 346.461 117.28 342.09 117.28ZM345.767 74.08C349.18 74.08 351.95 73.12 354.081 71.2C356.214 69.1732 357.813 66.8267 358.878 64.16C359.944 61.4932 360.476 59.1467 360.476 57.12C360.476 54.6667 359.784 52.64 358.398 51.04C357.014 49.3332 355.095 48.48 352.642 48.48C350.723 48.48 348.592 49.1732 346.247 50.56C344.008 51.9467 341.985 54.3467 340.173 57.76C338.36 61.0667 337.188 65.7067 336.653 71.68C340.066 73.28 343.104 74.08 345.767 74.08Z" fill="#D44D5C"/>
<path d="M408.682 117.6C402.072 117.6 396.583 116.693 392.211 114.88C387.842 113.067 384.592 110.773 382.461 108C380.327 105.12 379.263 102.24 379.263 99.36C379.263 95.3067 381.074 91.7332 384.699 88.64C388.321 85.44 393.225 83.84 399.409 83.84C399.409 89.28 400.101 93.6532 401.487 96.96C402.871 100.16 404.63 102.453 406.763 103.84C409.002 105.227 411.133 105.92 413.159 105.92C415.609 105.92 417.635 105.227 419.234 103.84C420.938 102.347 421.792 100.533 421.792 98.4C421.792 95.4132 420.246 92.8 417.156 90.56C414.063 88.32 410.066 85.8132 405.164 83.04C402.711 81.5467 400.048 79.84 397.17 77.92C394.292 75.8932 391.839 73.4932 389.815 70.72C387.789 67.84 386.778 64.4267 386.778 60.48C386.778 56.32 387.949 52.64 390.295 49.44C392.746 46.24 395.944 43.5732 399.888 41.44C403.83 39.2 408.095 37.5467 412.676 36.48C417.261 35.3067 421.737 34.72 426.109 34.72C434.316 34.72 440.499 36.3732 444.656 39.68C448.813 42.9867 450.892 46.5067 450.892 50.24C450.892 53.44 449.293 56.32 446.095 58.88C442.897 61.44 437.993 62.72 431.386 62.72C431.49 57.28 430.371 53.3332 428.025 50.88C425.682 48.32 423.176 47.04 420.513 47.04C418.595 47.04 416.996 47.6267 415.717 48.8C414.438 49.9732 413.796 51.68 413.796 53.92C413.796 56.48 414.598 58.72 416.196 60.64C417.9 62.4532 419.979 64.1067 422.432 65.6C424.99 66.9867 427.601 68.32 430.266 69.6C433.889 71.3067 437.301 73.12 440.499 75.04C443.697 76.96 446.307 79.1467 448.333 81.6C450.357 84.0532 451.371 87.04 451.371 90.56C451.371 95.36 449.398 99.84 445.455 104C441.618 108.053 436.447 111.36 429.947 113.92C423.444 116.373 416.356 117.6 408.682 117.6Z" fill="#D44D5C"/>
<path d="M541.834 117.28C537.997 117.28 533.627 116.587 528.723 115.2C523.927 113.813 518.863 112.32 513.534 110.72C508.31 109.013 503.089 107.787 497.865 107.04C494.24 110.453 490.83 112.907 487.633 114.4C484.542 115.787 481.769 116.48 479.319 116.48C476.228 116.48 473.615 115.573 471.484 113.76C469.353 111.947 467.754 109.653 466.688 106.88C465.621 104 465.089 101.067 465.089 98.08C465.089 94.9867 465.621 92.0532 466.688 89.28C467.859 86.5067 469.618 84.2667 471.964 82.56C474.31 80.7467 477.293 79.84 480.918 79.84C481.665 79.84 482.464 79.8932 483.316 80C484.168 80.1067 485.075 80.2667 486.034 80.48C488.06 74.2932 489.819 67.4667 491.31 60C492.909 52.4267 494.136 45.0132 494.987 37.76C495.947 30.5067 496.426 24.2133 496.426 18.88C496.426 16.7467 496.319 15.2533 496.107 14.4C495.894 13.44 495.52 12.48 494.987 11.52L494.828 11.04C496.107 7.62665 498.238 4.95998 501.223 3.03998C504.208 1.11997 507.351 0.159973 510.656 0.159973C514.281 0.159973 517.264 1.49331 519.61 4.15998C521.956 6.71998 523.127 11.04 523.127 17.12C523.127 20.96 522.648 25.76 521.688 31.52C520.836 37.1732 519.61 43.3067 518.011 49.92C516.412 56.4267 514.653 62.88 512.735 69.28C510.816 75.68 508.897 81.3867 506.979 86.4C511.668 87.4667 516.36 88.6932 521.049 90.08C525.845 91.4667 530.534 92.16 535.119 92.16C538.636 92.16 541.994 91.52 545.191 90.24C548.497 88.96 551.587 86.6132 554.465 83.2C556.596 84.5867 558.142 86.56 559.101 89.12C560.168 91.68 560.7 94.4 560.7 97.28C560.7 100.48 560.008 103.627 558.622 106.72C557.343 109.707 555.317 112.213 552.546 114.24C549.776 116.267 546.203 117.28 541.834 117.28Z" fill="#D44D5C"/>
<path d="M571.737 116.96C568.752 116.96 566.086 115.733 563.741 113.28C561.502 110.72 560.383 106.027 560.383 99.2C560.383 98.0267 560.383 97.0132 560.383 96.16C560.49 95.2 560.543 94.5067 560.543 94.08C560.97 89.8132 561.557 84.5332 562.304 78.24C563.156 71.84 564.115 65.1732 565.18 58.24C566.246 51.2 567.313 44.4267 568.377 37.92C569.551 31.4132 570.616 25.76 571.575 20.96C572.534 16.0533 573.336 12.6933 573.976 10.88C575.147 7.67999 577.226 5.17331 580.211 3.35999C583.302 1.43998 586.447 0.47998 589.644 0.47998C592.415 0.47998 594.918 1.27998 597.159 2.87999C599.502 4.47999 601.101 7.19999 601.953 11.04C601.314 13.1733 600.302 16.96 598.915 22.4C597.531 27.7332 596.04 34.2932 594.441 42.08C592.842 49.8667 591.296 58.4532 589.802 67.84C588.418 77.2267 587.299 87.04 586.447 97.28C586.339 99.0932 586.179 101.227 585.967 103.68C585.752 106.027 585.592 108.427 585.488 110.88C584.208 112.267 582.29 113.653 579.732 115.04C577.173 116.32 574.508 116.96 571.737 116.96Z" fill="#D44D5C"/>
<path d="M638.127 116.8C634.822 116.8 631.892 115.947 629.334 114.24C626.883 112.533 625.709 109.973 625.816 106.56C626.028 100.587 626.456 93.9732 627.095 86.72C627.842 79.4667 628.694 72.1067 629.653 64.64C630.613 57.0667 631.572 49.8132 632.531 42.88C633.598 35.9467 634.557 29.76 635.409 24.32C633.491 24.1066 631.624 23.9466 629.813 23.84C628.002 23.7333 626.348 23.68 624.857 23.68C620.38 23.68 616.33 24.1066 612.705 24.96C609.188 25.8132 606.203 27.3067 603.752 29.44C603.752 22.72 604.284 17.28 605.351 13.12C606.522 8.8533 608.601 5.75997 611.586 3.83997C614.677 1.91997 619.153 0.959973 625.017 0.959973C629.281 0.959973 634.023 1.33331 639.246 2.07997C644.575 2.71997 649.959 3.4133 655.395 4.15997C660.831 4.90665 665.895 5.27997 670.584 5.27997C674.421 5.27997 677.831 4.90665 680.817 4.15997C683.907 3.4133 686.253 2.07997 687.852 0.159973C690.197 0.906638 692.009 2.55998 693.288 5.11997C694.567 7.5733 695.206 10.2933 695.206 13.28C695.206 15.9466 694.619 18.56 693.448 21.12C692.276 23.5733 690.41 25.6532 687.852 27.36C685.293 28.96 681.828 29.76 677.459 29.76C675.433 29.76 672.93 29.6 669.944 29.28C667.067 28.8532 663.976 28.4267 660.671 28C659.499 34.4 658.273 42.08 656.994 51.04C655.822 59.8932 654.808 69.44 653.956 79.68C653.209 89.92 652.729 100.32 652.517 110.88C650.598 112.907 648.307 114.4 645.642 115.36C643.084 116.32 640.578 116.8 638.127 116.8Z" fill="#D44D5C"/>
</svg>
