<svg width="500" height="500" viewBox="0 0 500 500" fill="none" xmlns="http://www.w3.org/2000/svg">
<g clip-path="url(#clip0_170_36)">
<rect width="500" height="500" rx="100" fill="url(#paint0_radial_170_36)"/>
<foreignObject x="-59.7" y="-59.7" width="619.4" height="619.4"><div xmlns="http://www.w3.org/1999/xhtml" style="backdrop-filter:blur(29.85px);clip-path:url(#bgblur_1_170_36_clip_path);height:100%;width:100%"></div></foreignObject><g data-figma-bg-blur-radius="59.7">
<rect width="500" height="500" rx="100" fill="white" fill-opacity="0.1"/>
<path d="M57.0633 284.248C52.7189 284.248 49.1202 283.502 46.2672 282.009C43.4791 280.517 41.4042 278.603 40.0425 276.267C38.6808 273.931 38 271.53 38 269.064C38 266.663 38.5836 264.392 39.7507 262.251C40.9178 260.044 42.5713 258.228 44.7111 256.8C46.9157 255.372 49.5093 254.659 52.492 254.659C52.4271 255.243 52.3947 255.794 52.3947 256.313C52.3947 256.768 52.3947 256.995 52.3947 256.995C52.3947 261.342 52.8162 264.781 53.6591 267.312C54.5021 269.778 55.572 271.562 56.8688 272.665C58.1655 273.704 59.4948 274.223 60.8565 274.223C62.9314 274.223 64.7793 273.412 66.4004 271.789C68.0215 270.102 68.8319 268.156 68.8319 265.949C68.8319 263.484 67.7621 261.31 65.6223 259.428C63.5474 257.546 60.8889 255.47 57.6469 253.199C55.8313 251.836 53.886 250.311 51.8112 248.624C49.8011 246.872 48.0828 244.828 46.6563 242.492C45.2298 240.091 44.5165 237.268 44.5165 234.024C44.5165 230.65 45.2946 227.665 46.8508 225.069C48.4718 222.474 50.5792 220.3 53.1728 218.548C55.8313 216.731 58.7167 215.368 61.8291 214.46C65.0064 213.487 68.1511 213 71.2635 213C75.0891 213 78.234 213.616 80.6979 214.849C83.1618 216.082 85.0097 217.672 86.2418 219.619C87.4738 221.565 88.0897 223.577 88.0897 225.653C88.0897 227.6 87.5385 229.482 86.4363 231.299C85.3988 233.051 83.8426 234.478 81.7677 235.581C79.6929 236.684 77.1316 237.236 74.0841 237.236C74.2786 236.328 74.4082 235.516 74.4731 234.803C74.538 234.024 74.5704 233.343 74.5704 232.759C74.5704 229.514 73.8572 227.211 72.4306 225.848C71.069 224.42 69.5451 223.707 67.8593 223.707C66.2382 223.707 64.6821 224.323 63.1908 225.556C61.6995 226.724 60.9537 228.638 60.9537 231.299C60.9537 233.57 61.5373 235.516 62.7045 237.139C63.9365 238.761 65.4927 240.188 67.373 241.421C69.3182 242.654 71.3607 243.855 73.5005 245.023C75.7052 246.191 77.8124 247.488 79.8225 248.916C81.8974 250.279 83.6157 251.901 84.9774 253.783C86.339 255.664 87.0199 258.033 87.0199 260.888C87.0199 263.873 86.2094 266.793 84.5883 269.648C82.9673 272.438 80.7628 274.936 77.9745 277.143C75.1863 279.284 71.9767 281.004 68.3456 282.301C64.7793 283.599 61.0186 284.248 57.0633 284.248Z" fill="white"/>
<path d="M105.983 284.345C101.703 284.345 98.0723 283.372 95.0896 281.425C92.1717 279.479 89.9671 276.948 88.4758 273.833C86.9845 270.654 86.2388 267.247 86.2388 263.613C86.2388 260.174 86.8872 256.735 88.184 253.296C89.5457 249.857 91.5233 246.71 94.117 243.855C96.7107 240.935 99.8554 238.631 103.551 236.944C107.312 235.192 111.624 234.316 116.487 234.316C121.285 234.316 124.852 235.289 127.186 237.236C129.52 239.118 130.687 241.194 130.687 243.465C130.687 245.866 129.488 248.072 127.089 250.084C124.689 252.096 121.188 253.101 116.584 253.101C116.844 252.128 117.038 251.155 117.168 250.181C117.362 249.143 117.46 248.17 117.46 247.261C117.46 245.899 117.168 244.763 116.584 243.855C116.001 242.881 114.963 242.395 113.472 242.395C112.11 242.395 110.651 243.011 109.095 244.244C107.604 245.477 106.307 247.294 105.205 249.695C104.167 252.096 103.649 255.048 103.649 258.552C103.649 261.991 104.2 264.781 105.302 266.923C106.469 269.064 107.96 270.621 109.776 271.595C111.592 272.503 113.504 272.957 115.515 272.957C118.173 272.957 120.734 272.276 123.198 270.913C125.662 269.486 127.445 267.539 128.548 265.073L129.52 265.463C129.52 268.837 128.742 271.724 127.186 274.125C125.695 276.461 123.749 278.408 121.35 279.965C118.951 281.458 116.39 282.561 113.667 283.275C110.943 283.988 108.382 284.345 105.983 284.345Z" fill="white"/>
<path d="M149.873 284.345C145.139 284.345 141.217 283.404 138.104 281.523C134.992 279.576 132.658 277.045 131.101 273.931C129.545 270.751 128.767 267.344 128.767 263.711C128.767 260.272 129.416 256.832 130.712 253.393C132.074 249.889 134.019 246.71 136.548 243.855C139.142 241 142.254 238.696 145.885 236.944C149.581 235.192 153.731 234.316 158.335 234.316C164.041 234.316 168.19 235.614 170.784 238.209C173.443 240.74 174.772 243.822 174.772 247.456C174.772 250.571 173.929 253.458 172.243 256.119C170.622 258.714 168.45 260.823 165.727 262.445C163.003 264.003 160.021 264.781 156.779 264.781C155.093 264.781 153.374 264.522 151.624 264.003C149.873 263.484 148.155 262.672 146.469 261.569C146.793 265.592 147.96 268.512 149.97 270.329C151.98 272.146 154.379 273.055 157.168 273.055C159.113 273.055 161.058 272.698 163.003 271.984C164.948 271.205 166.732 270.232 168.353 269.064C170.038 267.831 171.335 266.533 172.243 265.171L172.924 265.657C172.924 269.032 172.211 271.919 170.784 274.32C169.423 276.656 167.607 278.57 165.338 280.063C163.068 281.555 160.572 282.658 157.848 283.372C155.19 284.021 152.531 284.345 149.873 284.345ZM152.11 258.065C154.185 258.065 155.871 257.481 157.168 256.313C158.464 255.08 159.437 253.653 160.085 252.031C160.734 250.408 161.058 248.981 161.058 247.748C161.058 246.256 160.637 245.023 159.794 244.049C158.951 243.011 157.783 242.492 156.292 242.492C155.125 242.492 153.828 242.914 152.402 243.757C151.04 244.601 149.808 246.061 148.706 248.137C147.604 250.149 146.89 252.972 146.566 256.605C148.641 257.579 150.489 258.065 152.11 258.065Z" fill="white"/>
<path d="M185.416 283.956C183.017 283.956 180.845 283.015 178.899 281.133C176.954 279.187 175.982 276.494 175.982 273.055C175.982 271.368 176.209 269.453 176.662 267.312C177.116 265.171 177.603 262.997 178.121 260.791C178.705 258.584 179.224 256.508 179.678 254.561C180.131 252.615 180.358 251.025 180.358 249.792C180.358 248.494 180.099 247.488 179.58 246.775C179.062 245.996 178.381 245.607 177.538 245.607C176.436 245.607 175.236 246.256 173.939 247.553L173.356 247.164C173.291 246.126 173.518 244.893 174.036 243.465C174.555 242.038 175.333 240.675 176.371 239.377C177.473 238.015 178.867 236.879 180.553 235.971C182.239 235.062 184.249 234.608 186.583 234.608C190.02 234.608 192.549 235.614 194.17 237.625C195.856 239.572 196.699 241.973 196.699 244.828C196.699 245.866 196.602 246.872 196.407 247.845C197.769 245.834 199.454 243.822 201.463 241.811C203.474 239.734 205.679 238.015 208.079 236.652C210.542 235.289 213.071 234.608 215.665 234.608C218.712 234.608 220.787 235.581 221.89 237.528C222.992 239.475 223.543 241.908 223.543 244.828C223.543 247.553 223.252 250.473 222.668 253.588C222.084 256.703 221.501 259.72 220.917 262.64C220.334 265.495 220.042 267.896 220.042 269.843C220.042 272.438 220.787 273.736 222.279 273.736C223.057 273.736 223.738 273.509 224.321 273.055C224.905 272.536 225.294 272.049 225.489 271.595L226.169 271.887C226.169 274.288 225.489 276.396 224.127 278.213C222.829 280.03 221.176 281.458 219.167 282.496C217.156 283.469 215.113 283.956 213.039 283.956C210.51 283.956 208.273 283.08 206.328 281.328C204.383 279.576 203.41 276.721 203.41 272.763C203.41 270.427 203.702 267.896 204.286 265.171C204.933 262.445 205.55 259.817 206.133 257.287C206.717 254.756 207.009 252.68 207.009 251.057C207.009 250.084 206.814 249.338 206.424 248.819C206.1 248.235 205.485 247.943 204.577 247.943C203.085 247.943 201.431 248.624 199.617 249.987C197.866 251.349 196.342 253.166 195.046 255.437C193.813 257.708 193.198 260.207 193.198 262.932C193.198 264.684 193.392 266.371 193.781 267.993C194.234 269.616 194.462 271.368 194.462 273.249C194.462 276.753 193.553 279.414 191.739 281.231C189.922 283.048 187.815 283.956 185.416 283.956Z" fill="white"/>
<path d="M246.1 284.345C241.368 284.345 237.446 283.404 234.333 281.523C231.221 279.576 228.885 277.045 227.329 273.931C225.773 270.751 224.996 267.344 224.996 263.711C224.996 260.272 225.644 256.832 226.94 253.393C228.303 249.889 230.248 246.71 232.777 243.855C235.37 241 238.482 238.696 242.114 236.944C245.81 235.192 249.959 234.316 254.564 234.316C260.269 234.316 264.419 235.614 267.013 238.209C269.671 240.74 270.999 243.822 270.999 247.456C270.999 250.571 270.157 253.458 268.471 256.119C266.851 258.714 264.679 260.823 261.956 262.445C259.232 264.003 256.249 264.781 253.008 264.781C251.321 264.781 249.603 264.522 247.853 264.003C246.102 263.484 244.383 262.672 242.698 261.569C243.021 265.592 244.189 268.512 246.199 270.329C248.208 272.146 250.608 273.055 253.395 273.055C255.34 273.055 257.286 272.698 259.231 271.984C261.176 271.205 262.96 270.232 264.58 269.064C266.267 267.831 267.563 266.533 268.471 265.171L269.151 265.657C269.151 269.032 268.439 271.919 267.013 274.32C265.652 276.656 263.835 278.57 261.567 280.063C259.296 281.555 256.799 282.658 254.076 283.372C251.418 284.021 248.76 284.345 246.1 284.345ZM248.337 258.065C250.413 258.065 252.099 257.481 253.395 256.313C254.693 255.08 255.666 253.653 256.313 252.031C256.962 250.408 257.286 248.981 257.286 247.748C257.286 246.256 256.865 245.023 256.021 244.049C255.179 243.011 254.012 242.492 252.52 242.492C251.353 242.492 250.056 242.914 248.629 243.757C247.268 244.601 246.037 246.061 244.935 248.137C243.831 250.149 243.119 252.972 242.794 256.605C244.869 257.579 246.717 258.065 248.337 258.065Z" fill="white"/>
<path d="M286.61 284.54C282.589 284.54 279.25 283.988 276.59 282.885C273.932 281.782 271.955 280.387 270.659 278.7C269.361 276.948 268.714 275.196 268.714 273.444C268.714 270.978 269.816 268.804 272.021 266.923C274.224 264.976 277.207 264.003 280.969 264.003C280.969 267.312 281.39 269.972 282.233 271.984C283.075 273.931 284.145 275.326 285.443 276.169C286.804 277.013 288.101 277.435 289.333 277.435C290.824 277.435 292.057 277.013 293.029 276.169C294.066 275.261 294.585 274.158 294.585 272.86C294.585 271.043 293.645 269.453 291.765 268.091C289.883 266.728 287.452 265.203 284.47 263.516C282.978 262.608 281.358 261.569 279.607 260.401C277.856 259.168 276.364 257.708 275.133 256.021C273.901 254.269 273.285 252.193 273.285 249.792C273.285 247.261 273.998 245.023 275.425 243.076C276.916 241.129 278.861 239.507 281.261 238.209C283.659 236.847 286.253 235.841 289.04 235.192C291.829 234.478 294.552 234.121 297.211 234.121C302.204 234.121 305.965 235.127 308.494 237.139C311.023 239.15 312.287 241.292 312.287 243.563C312.287 245.509 311.314 247.261 309.369 248.819C307.424 250.376 304.441 251.155 300.421 251.155C300.485 247.845 299.804 245.444 298.377 243.952C296.952 242.395 295.427 241.616 293.807 241.616C292.64 241.616 291.668 241.973 290.889 242.687C290.111 243.4 289.721 244.439 289.721 245.801C289.721 247.359 290.209 248.721 291.181 249.889C292.218 250.992 293.482 251.998 294.974 252.907C296.531 253.75 298.119 254.561 299.74 255.34C301.944 256.378 304.02 257.481 305.965 258.649C307.91 259.817 309.498 261.148 310.731 262.64C311.962 264.132 312.579 265.949 312.579 268.091C312.579 271.011 311.378 273.736 308.98 276.267C306.646 278.732 303.5 280.744 299.546 282.301C295.59 283.794 291.278 284.54 286.61 284.54Z" fill="white"/>
<path d="M367.609 284.345C365.275 284.345 362.617 283.924 359.634 283.08C356.716 282.236 353.635 281.328 350.394 280.355C347.216 279.316 344.04 278.57 340.862 278.116C338.657 280.192 336.583 281.685 334.637 282.593C332.758 283.437 331.071 283.859 329.58 283.859C327.7 283.859 326.11 283.307 324.814 282.204C323.518 281.101 322.545 279.706 321.896 278.019C321.247 276.267 320.924 274.482 320.924 272.665C320.924 270.784 321.247 268.999 321.896 267.312C322.609 265.625 323.679 264.262 325.106 263.224C326.533 262.121 328.347 261.569 330.552 261.569C331.007 261.569 331.493 261.602 332.011 261.667C332.53 261.732 333.081 261.829 333.665 261.959C334.897 258.195 335.967 254.042 336.874 249.5C337.847 244.893 338.593 240.383 339.111 235.971C339.695 231.558 339.987 227.73 339.987 224.485C339.987 223.188 339.921 222.279 339.792 221.76C339.663 221.176 339.435 220.592 339.111 220.008L339.014 219.716C339.792 217.64 341.089 216.017 342.905 214.849C344.721 213.681 346.632 213.097 348.643 213.097C350.848 213.097 352.663 213.908 354.09 215.531C355.517 217.088 356.229 219.716 356.229 223.415C356.229 225.751 355.938 228.671 355.354 232.175C354.836 235.614 354.09 239.345 353.117 243.368C352.144 247.326 351.075 251.252 349.907 255.145C348.74 259.039 347.573 262.51 346.406 265.56C349.259 266.209 352.113 266.955 354.965 267.799C357.883 268.642 360.735 269.064 363.524 269.064C365.664 269.064 367.706 268.675 369.652 267.896C371.662 267.117 373.542 265.69 375.293 263.613C376.589 264.457 377.53 265.657 378.113 267.215C378.762 268.772 379.086 270.427 379.086 272.179C379.086 274.125 378.665 276.04 377.822 277.921C377.043 279.738 375.811 281.263 374.126 282.496C372.44 283.729 370.267 284.345 367.609 284.345Z" fill="white"/>
<path d="M385.8 284.151C383.984 284.151 382.362 283.404 380.935 281.912C379.574 280.355 378.893 277.5 378.893 273.347C378.893 272.633 378.893 272.016 378.893 271.497C378.958 270.913 378.99 270.492 378.99 270.232C379.25 267.636 379.607 264.424 380.062 260.596C380.58 256.703 381.163 252.647 381.811 248.429C382.46 244.147 383.109 240.026 383.756 236.068C384.47 232.11 385.118 228.671 385.701 225.751C386.285 222.766 386.773 220.722 387.162 219.619C387.874 217.672 389.139 216.147 390.955 215.044C392.835 213.876 394.748 213.292 396.693 213.292C398.379 213.292 399.901 213.779 401.265 214.752C402.69 215.725 403.663 217.38 404.181 219.716C403.792 221.014 403.176 223.317 402.333 226.627C401.491 229.871 400.584 233.862 399.611 238.599C398.639 243.336 397.698 248.559 396.789 254.269C395.947 259.98 395.266 265.949 394.748 272.179C394.683 273.282 394.585 274.58 394.456 276.072C394.326 277.5 394.228 278.96 394.165 280.452C393.386 281.296 392.219 282.139 390.663 282.983C389.107 283.761 387.485 284.151 385.8 284.151Z" fill="white"/>
<path d="M426.186 284.053C424.176 284.053 422.393 283.534 420.837 282.496C419.346 281.458 418.632 279.9 418.697 277.824C418.826 274.19 419.086 270.167 419.475 265.755C419.93 261.342 420.448 256.865 421.032 252.323C421.615 247.716 422.199 243.303 422.782 239.085C423.431 234.868 424.015 231.104 424.533 227.795C423.366 227.665 422.231 227.568 421.129 227.503C420.027 227.438 419.021 227.405 418.114 227.405C415.39 227.405 412.927 227.665 410.722 228.184C408.582 228.703 406.766 229.612 405.275 230.909C405.275 226.821 405.599 223.512 406.248 220.981C406.961 218.386 408.225 216.504 410.041 215.336C411.921 214.168 414.644 213.584 418.211 213.584C420.805 213.584 423.69 213.811 426.867 214.265C430.109 214.655 433.384 215.076 436.691 215.531C439.998 215.985 443.078 216.212 445.931 216.212C448.265 216.212 450.339 215.985 452.155 215.531C454.035 215.076 455.462 214.265 456.435 213.097C457.862 213.552 458.964 214.557 459.742 216.115C460.52 217.607 460.909 219.262 460.909 221.079C460.909 222.701 460.552 224.291 459.839 225.848C459.126 227.34 457.991 228.606 456.435 229.644C454.879 230.617 452.771 231.104 450.113 231.104C448.88 231.104 447.358 231.007 445.542 230.812C443.791 230.552 441.911 230.293 439.9 230.033C439.188 233.927 438.441 238.599 437.663 244.049C436.951 249.435 436.334 255.243 435.815 261.472C435.361 267.701 435.069 274.028 434.94 280.452C433.773 281.685 432.379 282.593 430.758 283.177C429.202 283.761 427.677 284.053 426.186 284.053Z" fill="white"/>
</g>
</g>
<defs>
<clipPath id="bgblur_1_170_36_clip_path" transform="translate(59.7 59.7)"><rect width="500" height="500" rx="100"/>
</clipPath><radialGradient id="paint0_radial_170_36" cx="0" cy="0" r="1" gradientUnits="userSpaceOnUse" gradientTransform="translate(250 250) rotate(90) scale(250)">
<stop stop-color="#D44D5C"/>
<stop offset="1" stop-color="#773344"/>
</radialGradient>
<clipPath id="clip0_170_36">
<rect width="500" height="500" rx="100" fill="white"/>
</clipPath>
</defs>
</svg>
