<svg width="997" height="208" viewBox="0 0 997 208" fill="none" xmlns="http://www.w3.org/2000/svg">
<path fill-rule="evenodd" clip-rule="evenodd" d="M25.5187 142.907C37.3535 147.733 53.183 151.131 74.1789 151.131C95.1748 151.131 109.907 148.148 121.582 143.781C109.524 161.709 93.609 181.873 73.8383 204.285C53.7476 181.522 37.6411 161.069 25.5187 142.918V142.907ZM4.2778 45.4096C16.0594 18.6623 42.7756 0 73.8383 0C104.9 0 131.745 18.7582 143.483 45.6013C139.191 42.5123 133.662 40.8186 126.77 40.8186H21.5879C13.9822 40.8186 8.38965 42.6188 4.2778 45.4096ZM0.112707 103.144V76.1194C0.112707 66.5326 -2.84866 49.6385 21.5879 49.6385H126.78C140.373 49.6385 147.712 55.6782 147.712 76.1194V103.144C147.712 117.204 133.31 134.812 74.1897 132.927C15.0687 131.052 0.112707 114.168 0.112707 103.144ZM78.8017 95.538L94.0666 84.1618C90.9565 89.5727 88.5487 93.983 86.866 97.3705C85.4278 100.257 84.4796 102.451 84.022 104.028C83.7236 105.04 83.5959 105.871 83.6806 106.67C83.862 108.31 85.0979 109.631 86.8975 109.631C89.7953 109.631 97.0067 103.847 110.983 90.6808L106.786 102.164C105.848 104.72 108.799 106.936 110.993 105.338L124.479 95.5595C125.715 94.6644 125.981 92.9387 125.087 91.7144C124.192 90.4786 122.466 90.2118 121.231 91.1069L115.042 95.5911L120.187 81.4987C121.188 78.7502 117.79 76.5454 115.681 78.5695C106.594 87.3148 99.5106 93.8553 94.4396 98.2011C93.2783 99.2024 92.2239 100.076 91.2757 100.832C91.4357 100.513 91.5956 100.172 91.7764 99.8199C94.4826 94.3875 99.1377 86.1644 105.721 75.1927C107.276 72.6042 104.123 69.7602 101.705 71.571L75.4786 91.1284C74.2535 92.0335 74.0082 93.7592 74.9141 94.9843C75.8301 96.1986 77.5558 96.4539 78.7702 95.5487L78.8017 95.538ZM10.8077 87.6985C10.5947 92.8749 9.72118 101.12 12.9489 106.617C16.8903 113.338 29.5027 116.48 35.042 117.481C29.5027 114.904 20.054 110.185 16.0807 104.795C12.118 99.4046 12.1712 92.8641 10.8077 87.6985Z" fill="black"/>
<mask id="mask0_105_2" style="mask-type:luminance" maskUnits="userSpaceOnUse" x="0" y="0" width="148" height="205">
<path d="M25.5187 142.907C37.3535 147.733 53.183 151.131 74.1789 151.131C95.1748 151.131 109.907 148.148 121.582 143.781C109.524 161.709 93.609 181.873 73.8383 204.285C53.7476 181.522 37.6411 161.069 25.5187 142.918V142.907ZM4.2778 45.4096C16.0594 18.6623 42.7756 0 73.8383 0C104.9 0 131.745 18.7582 143.483 45.6013C139.191 42.5123 133.662 40.8186 126.77 40.8186H21.5879C13.9822 40.8186 8.38965 42.6188 4.2778 45.4096ZM0.112707 103.144V76.1194C0.112707 66.5326 -2.84866 49.6385 21.5879 49.6385H126.78C140.373 49.6385 147.712 55.6782 147.712 76.1194V103.144C147.712 117.204 133.31 134.812 74.1897 132.927C15.0687 131.052 0.112707 114.168 0.112707 103.144ZM78.8017 95.538L94.0666 84.1618C90.9565 89.5727 88.5487 93.983 86.866 97.3705C85.4278 100.257 84.4796 102.451 84.022 104.028C83.7236 105.04 83.5959 105.871 83.6806 106.67C83.862 108.31 85.0979 109.631 86.8975 109.631C89.7953 109.631 97.0067 103.847 110.983 90.6808L106.786 102.164C105.848 104.72 108.799 106.936 110.993 105.338L124.479 95.5595C125.715 94.6644 125.981 92.9387 125.087 91.7144C124.192 90.4786 122.466 90.2118 121.231 91.1069L115.042 95.5911L120.187 81.4987C121.188 78.7502 117.79 76.5454 115.681 78.5695C106.594 87.3148 99.5106 93.8553 94.4396 98.2011C93.2783 99.2024 92.2239 100.076 91.2757 100.832C91.4357 100.513 91.5956 100.172 91.7764 99.8199C94.4826 94.3875 99.1377 86.1644 105.721 75.1927C107.276 72.6042 104.123 69.7602 101.705 71.571L75.4786 91.1284C74.2535 92.0335 74.0082 93.7592 74.9141 94.9843C75.8301 96.1986 77.5558 96.4539 78.7702 95.5487L78.8017 95.538ZM10.8077 87.6985C10.5947 92.8749 9.72118 101.12 12.9489 106.617C16.8903 113.338 29.5027 116.48 35.042 117.481C29.5027 114.904 20.054 110.185 16.0807 104.795C12.118 99.4046 12.1712 92.8641 10.8077 87.6985Z" fill="white"/>
</mask>
<g mask="url(#mask0_105_2)">
<path d="M155.57 -7.85876H-7.85913V212.127H155.57V-7.85876Z" fill="black"/>
</g>
<path d="M231.304 52.0213H243.981V119.257C243.981 133.648 248.146 140.465 261.195 140.465C277.088 140.465 280.497 133.456 280.497 119.257V52.0213H293.173V125.318C293.173 138.388 283.906 152.395 262.143 152.395C240.38 152.395 231.304 138.953 231.304 124.551V52.0213ZM346.531 97.0901H363.181C375.474 97.0901 383.613 90.0812 383.613 78.9073C383.613 70.002 378.318 63.3764 366.963 63.3764H346.531V97.0901ZM333.855 150.691V52.0213H367.346C383.804 52.0213 396.864 59.7867 396.864 78.9174C396.864 91.0394 388.725 102.97 376.806 106.571L401.018 146.526L390.046 153.152L364.885 108.456H346.531V150.691H333.855ZM451.916 139.326H466.669C477.833 139.326 488.24 136.865 488.24 123.422C488.24 113.569 481.806 105.622 469.695 105.622H451.905V139.336L451.916 139.326ZM451.916 94.2563H466.105C477.077 94.2563 482.562 87.2474 482.562 78.3529C482.562 66.6146 474.233 63.387 465.348 63.387H451.916V94.2563ZM469.13 150.691H429.023V139.326H439.239V63.387H429.023V52.0213H460.054C485.034 52.0213 495.814 61.491 495.814 78.3421C495.814 86.8644 492.225 94.4377 484.65 98.6028C495.431 102.011 501.492 111.289 501.492 122.463C501.492 140.263 489.764 150.68 469.141 150.68L469.13 150.691ZM580.575 123.794H545.571L536.304 153.152L523.819 148.603L554.85 52.0213H571.116L602.146 148.603L589.662 153.152L580.575 123.794ZM576.985 112.429L562.988 66.785L548.991 112.429H576.996H576.985ZM630.344 150.68V52.0213H646.045L684.265 135.161L684.649 134.777L683.509 109.212V52.0213H696.186V150.691H680.484L642.263 67.5519L641.88 67.9355L643.02 93.6918V150.702H630.344V150.68ZM781.139 123.784H746.136L736.869 153.141L724.381 148.592L755.41 52.0106H771.678L802.707 148.592L790.226 153.141L781.139 123.784ZM777.552 112.418L763.551 66.7744L749.557 112.418H777.552ZM832.983 52H845.657V119.236C845.657 133.626 849.824 140.444 862.871 140.444C878.766 140.444 882.18 133.435 882.18 119.236V52H894.854V125.296C894.854 138.367 885.587 152.374 863.825 152.374C842.063 152.374 832.983 138.931 832.983 124.53V52.0213V52ZM950.478 150.669V63.3657H923.229V52H989.827V63.3657H963.159V150.669H950.478Z" fill="black"/>
<mask id="mask1_105_2" style="mask-type:luminance" maskUnits="userSpaceOnUse" x="231" y="52" width="759" height="102">
<path d="M231.318 52.0213H243.995V119.257C243.995 133.648 248.16 140.465 261.209 140.465C277.102 140.465 280.511 133.456 280.511 119.257V52.0213H293.188V125.318C293.188 138.388 283.92 152.395 262.157 152.395C240.394 152.395 231.318 138.953 231.318 124.551V52.0213ZM346.546 97.0901H363.195C375.488 97.0901 383.626 90.0812 383.626 78.9073C383.626 70.002 378.332 63.3764 366.976 63.3764H346.546V97.0901ZM333.869 150.691V52.0213H367.36C383.818 52.0213 396.878 59.7867 396.878 78.9174C396.878 91.0394 388.74 102.97 376.819 106.571L401.032 146.526L390.06 153.152L364.899 108.456H346.546V150.691H333.869ZM451.929 139.326H466.684C477.847 139.326 488.255 136.865 488.255 123.422C488.255 113.569 481.82 105.622 469.708 105.622H451.919V139.336L451.929 139.326ZM451.929 94.2563H466.118C477.09 94.2563 482.577 87.2474 482.577 78.3529C482.577 66.6146 474.246 63.387 465.362 63.387H451.929V94.2563ZM469.144 150.691H429.038V139.326H439.253V63.387H429.038V52.0213H460.068C485.048 52.0213 495.828 61.491 495.828 78.3421C495.828 86.8644 492.238 94.4377 484.665 98.6028C495.444 102.011 501.506 111.289 501.506 122.463C501.506 140.263 489.777 150.68 469.154 150.68L469.144 150.691ZM580.59 123.794H545.586L536.318 153.152L523.833 148.603L554.864 52.0213H571.13L602.161 148.603L589.676 153.152L580.59 123.794ZM577 112.429L563.002 66.785L549.005 112.429H577.01H577ZM630.357 150.68V52.0213H646.059L684.28 135.161L684.664 134.777L683.524 109.212V52.0213H696.2V150.691H680.498L642.277 67.5519L641.894 67.9355L643.033 93.6918V150.702H630.357V150.68ZM781.153 123.784H746.151L736.883 153.141L724.396 148.592L755.425 52.0106H771.692L802.721 148.592L790.241 153.141L781.153 123.784ZM777.56 112.418L763.566 66.7744L749.572 112.418H777.574H777.56ZM832.997 52H845.671V119.236C845.671 133.626 849.839 140.444 862.886 140.444C878.78 140.444 882.194 133.435 882.194 119.236V52H894.868V125.296C894.868 138.367 885.601 152.374 863.84 152.374C842.07 152.374 832.997 138.931 832.997 124.53V52.0213V52ZM950.493 150.669V63.3657H923.243V52H989.842V63.3657H963.174V150.669H950.493Z" fill="white"/>
</mask>
<g mask="url(#mask1_105_2)">
<path d="M1021.45 20.4105H199.728V184.75H1021.45V20.4105Z" fill="black"/>
</g>
</svg>
